<?xml version="1.0" encoding="UTF-8" standalone="no"?>
<svg
   viewBox="0 0 24 24"
   version="1.1"
   id="svg4"
   sodipodi:docname="help-box.svg"
   inkscape:version="1.1.2 (b8e25be833, 2022-02-05)"
   xmlns:inkscape="http://www.inkscape.org/namespaces/inkscape"
   xmlns:sodipodi="http://sodipodi.sourceforge.net/DTD/sodipodi-0.dtd"
   xmlns="http://www.w3.org/2000/svg"
   xmlns:svg="http://www.w3.org/2000/svg">
  <defs
     id="defs8" />
  <sodipodi:namedview
     id="namedview6"
     pagecolor="#505050"
     bordercolor="#eeeeee"
     borderopacity="1"
     inkscape:pageshadow="0"
     inkscape:pageopacity="0"
     inkscape:pagecheckerboard="0"
     showgrid="false"
     inkscape:zoom="34.625"
     inkscape:cx="12"
     inkscape:cy="11.98556"
     inkscape:window-width="1920"
     inkscape:window-height="1017"
     inkscape:window-x="-8"
     inkscape:window-y="-8"
     inkscape:window-maximized="1"
     inkscape:current-layer="svg4" />
  <path
     id="path2"
     style="fill:#ffffff"
     d="M 5 3 A 2 2 0 0 0 3 5 L 3 19 A 2 2 0 0 0 5 21 L 19 21 A 2 2 0 0 0 21 19 L 21 5 A 2 2 0 0 0 19 3 L 5 3 z M 5.5 4 A 1.5 1.5 0 0 1 7 5.5 A 1.5 1.5 0 0 1 5.5 7 A 1.5 1.5 0 0 1 4 5.5 A 1.5 1.5 0 0 1 5.5 4 z M 18.5 4 A 1.5 1.5 0 0 1 20 5.5 A 1.5 1.5 0 0 1 18.5 7 A 1.5 1.5 0 0 1 17 5.5 A 1.5 1.5 0 0 1 18.5 4 z M 12 6 A 4 4 0 0 1 16 10 C 16 12.5 13 12.75 13 15 L 11 15 C 11 11.75 14 12 14 10 A 2 2 0 0 0 12 8 A 2 2 0 0 0 10 10 L 8 10 A 4 4 0 0 1 12 6 z M 11 16 L 13 16 L 13 18 L 11 18 L 11 16 z M 5.5 17 A 1.5 1.5 0 0 1 7 18.5 A 1.5 1.5 0 0 1 5.5 20 A 1.5 1.5 0 0 1 4 18.5 A 1.5 1.5 0 0 1 5.5 17 z M 18.5 17 A 1.5 1.5 0 0 1 20 18.5 A 1.5 1.5 0 0 1 18.5 20 A 1.5 1.5 0 0 1 17 18.5 A 1.5 1.5 0 0 1 18.5 17 z " />
</svg>
