<?xml version="1.0" encoding="UTF-8" standalone="no"?>
<svg
   viewBox="0 0 24 24"
   version="1.1"
   id="svg4"
   sodipodi:docname="file_source.svg"
   inkscape:version="1.1.2 (b8e25be833, 2022-02-05)"
   xmlns:inkscape="http://www.inkscape.org/namespaces/inkscape"
   xmlns:sodipodi="http://sodipodi.sourceforge.net/DTD/sodipodi-0.dtd"
   xmlns="http://www.w3.org/2000/svg"
   xmlns:svg="http://www.w3.org/2000/svg">
  <defs
     id="defs8" />
  <sodipodi:namedview
     id="namedview6"
     pagecolor="#505050"
     bordercolor="#eeeeee"
     borderopacity="1"
     inkscape:pageshadow="0"
     inkscape:pageopacity="0"
     inkscape:pagecheckerboard="0"
     showgrid="false"
     inkscape:zoom="17.3125"
     inkscape:cx="9.8194946"
     inkscape:cy="20.534296"
     inkscape:window-width="1037"
     inkscape:window-height="1008"
     inkscape:window-x="-7"
     inkscape:window-y="0"
     inkscape:window-maximized="0"
     inkscape:current-layer="svg4" />
  <path
     id="path2"
     style="fill:#ffffff"
     d="M 6 2 C 4.89 2 4 2.89 4 4 L 4 20 C 4 21.1 4.89 22 6 22 L 18 22 C 19.104569 22 20 21.104569 20 20 L 20 8 L 14 2 L 6 2 z M 13 3.5 L 18.5 9 L 13 9 L 13 3.5 z M 8.9394531 4.5390625 C 9.9811197 4.5390625 10.814453 5.3723961 10.814453 6.4140625 C 10.814453 7.2307295 10.289453 7.9213535 9.5644531 8.1796875 L 9.5644531 15.300781 C 10.114453 14.892448 10.914453 14.601562 12.064453 14.601562 C 13.73112 14.601562 14.289323 13.767317 14.472656 13.208984 C 13.789323 12.933983 13.314453 12.259896 13.314453 11.476562 C 13.314453 10.434897 14.147786 9.6015625 15.189453 9.6015625 C 16.23112 9.6015625 17.064453 10.434897 17.064453 11.476562 C 17.064453 12.31823 16.514192 13.025911 15.755859 13.267578 C 15.597525 14.159244 14.98112 15.851562 12.689453 15.851562 C 10.589453 15.851563 9.9071614 16.683333 9.6738281 17.25 C 10.348828 17.516667 10.814453 18.201563 10.814453 18.976562 C 10.814453 20.018229 9.9811197 20.851562 8.9394531 20.851562 C 7.8977864 20.851562 7.0644531 20.01823 7.0644531 18.976562 C 7.0644531 18.159896 7.5894531 17.467318 8.3144531 17.208984 L 8.3144531 8.1796875 C 7.5894531 7.9213535 7.0644531 7.2307295 7.0644531 6.4140625 C 7.0644531 5.3723961 7.8977864 4.5390625 8.9394531 4.5390625 z M 8.9394531 5.7890625 C 8.5942751 5.7890625 8.3144531 6.0688848 8.3144531 6.4140625 C 8.3144531 6.7592405 8.5942751 7.0390625 8.9394531 7.0390625 C 9.2846311 7.0390625 9.5644531 6.7592405 9.5644531 6.4140625 C 9.5644531 6.0688848 9.2846311 5.7890625 8.9394531 5.7890625 z M 15.189453 10.851562 C 14.844275 10.851562 14.564453 11.131384 14.564453 11.476562 C 14.564453 11.821741 14.844275 12.101562 15.189453 12.101562 C 15.534631 12.101562 15.814453 11.821741 15.814453 11.476562 C 15.814453 11.131384 15.534631 10.851562 15.189453 10.851562 z M 8.9394531 18.351562 C 8.5942751 18.351562 8.3144531 18.631384 8.3144531 18.976562 C 8.3144531 19.32174 8.5942751 19.601562 8.9394531 19.601562 C 9.2846311 19.601562 9.5644531 19.321741 9.5644531 18.976562 C 9.5644531 18.631385 9.2846311 18.351562 8.9394531 18.351562 z " />
</svg>
