<?xml version="1.0" encoding="UTF-8" standalone="no"?>
<svg
   viewBox="0 0 24 24"
   version="1.1"
   id="svg4"
   sodipodi:docname="folder_source.svg"
   inkscape:version="1.1.2 (b8e25be833, 2022-02-05)"
   xmlns:inkscape="http://www.inkscape.org/namespaces/inkscape"
   xmlns:sodipodi="http://sodipodi.sourceforge.net/DTD/sodipodi-0.dtd"
   xmlns="http://www.w3.org/2000/svg"
   xmlns:svg="http://www.w3.org/2000/svg">
  <defs
     id="defs8" />
  <sodipodi:namedview
     id="namedview6"
     pagecolor="#505050"
     bordercolor="#eeeeee"
     borderopacity="1"
     inkscape:pageshadow="0"
     inkscape:pageopacity="0"
     inkscape:pagecheckerboard="0"
     showgrid="false"
     inkscape:zoom="12.241786"
     inkscape:cx="6.4533066"
     inkscape:cy="24.138634"
     inkscape:window-width="1277"
     inkscape:window-height="1008"
     inkscape:window-x="-7"
     inkscape:window-y="0"
     inkscape:window-maximized="0"
     inkscape:current-layer="svg4" />
  <path
     id="path2"
     style="display:none;fill:#ffffff"
     d="M 6,2 C 4.89,2 4,2.89 4,4 v 16 c 0,1.1 0.89,2 2,2 h 12 c 1.104569,0 2,-0.895431 2,-2 V 8 L 14,2 Z M 13,3.5 18.5,9 H 13 Z M 8.9394531,4.5390625 c 1.0416666,0 1.8749999,0.8333336 1.8749999,1.875 0,0.816667 -0.525,1.507291 -1.2499999,1.765625 v 7.1210935 c 0.5499999,-0.408333 1.3499999,-0.699219 2.4999999,-0.699219 1.666667,0 2.22487,-0.834245 2.408203,-1.392578 -0.683333,-0.275001 -1.158203,-0.949088 -1.158203,-1.732422 0,-1.041665 0.833333,-1.8749995 1.875,-1.8749995 1.041667,0 1.875,0.8333345 1.875,1.8749995 0,0.841668 -0.550261,1.549349 -1.308594,1.791016 -0.158334,0.891666 -0.774739,2.583984 -3.066406,2.583984 -2.1,1e-6 -2.7822916,0.831771 -3.0156249,1.398438 0.6749999,0.266667 1.1406249,0.951563 1.1406249,1.726562 0,1.041667 -0.8333333,1.875 -1.8749999,1.875 -1.0416667,0 -1.875,-0.833332 -1.875,-1.875 0,-0.816666 0.525,-1.509244 1.25,-1.767578 V 8.1796875 c -0.725,-0.258334 -1.25,-0.948958 -1.25,-1.765625 0,-1.0416664 0.8333333,-1.875 1.875,-1.875 z m 0,1.25 c -0.345178,0 -0.625,0.2798223 -0.625,0.625 0,0.345178 0.279822,0.625 0.625,0.625 0.345178,0 0.625,-0.279822 0.625,-0.625 0,-0.3451777 -0.279822,-0.625 -0.625,-0.625 z m 6.2499999,5.0624995 c -0.345178,0 -0.625,0.279822 -0.625,0.625 0,0.345179 0.279822,0.625 0.625,0.625 0.345178,0 0.625,-0.279821 0.625,-0.625 0,-0.345178 -0.279822,-0.625 -0.625,-0.625 z m -6.2499999,7.5 c -0.345178,0 -0.625,0.279822 -0.625,0.625 0,0.345178 0.279822,0.625 0.625,0.625 0.345178,0 0.625,-0.279821 0.625,-0.625 0,-0.345177 -0.279822,-0.625 -0.625,-0.625 z" />
  <path
     id="path2147"
     style="fill:#ffffff"
     d="M 4 4 C 2.89 4 2 4.89 2 6 L 2 18 A 2 2 0 0 0 4 20 L 20 20 A 2 2 0 0 0 22 18 L 22 8 C 22 6.89 21.1 6 20 6 L 12 6 L 10 4 L 4 4 z M 8.5996094 5.4472656 C 9.7662764 5.4472656 10.699219 6.3802082 10.699219 7.546875 C 10.699219 8.4615416 10.112781 9.2360573 9.3007812 9.5253906 L 9.3007812 13.230469 C 9.9167816 12.773135 10.811609 12.447266 12.099609 12.447266 C 13.966275 12.447266 14.591541 11.514003 14.796875 10.888672 C 14.031541 10.580672 13.5 9.8245988 13.5 8.9472656 C 13.5 7.7805989 14.432942 6.8457031 15.599609 6.8457031 C 16.766275 6.8457031 17.699219 7.7805989 17.699219 8.9472656 C 17.699219 9.8899329 17.083709 10.682459 16.234375 10.953125 C 16.057043 11.951792 15.367448 13.845703 12.800781 13.845703 C 10.448781 13.845703 9.6832086 14.779394 9.421875 15.414062 C 10.177876 15.71273 10.699219 16.477703 10.699219 17.345703 C 10.699219 18.512369 9.7662764 19.447266 8.5996094 19.447266 C 7.4329427 19.447266 6.5 18.512369 6.5 17.345703 C 6.5 16.431037 7.0883906 15.656519 7.9003906 15.367188 L 7.9003906 9.5253906 C 7.0883906 9.2360573 6.5 8.4615416 6.5 7.546875 C 6.5 6.3802082 7.4329427 5.4472656 8.5996094 5.4472656 z M 8.5996094 6.8457031 C 8.2130097 6.8457031 7.9003906 7.1602752 7.9003906 7.546875 C 7.9003906 7.9334738 8.2130097 8.2460938 8.5996094 8.2460938 C 8.9862092 8.2460938 9.3007812 7.9334738 9.3007812 7.546875 C 9.3007812 7.1602752 8.9862092 6.8457031 8.5996094 6.8457031 z M 15.599609 8.2460938 C 15.213009 8.2460938 14.900391 8.5606659 14.900391 8.9472656 C 14.900391 9.3338645 15.213009 9.6464844 15.599609 9.6464844 C 15.986208 9.6464844 16.300781 9.3338645 16.300781 8.9472656 C 16.300781 8.5606659 15.986208 8.2460938 15.599609 8.2460938 z M 8.5996094 16.646484 C 8.2130097 16.646484 7.9003906 16.959103 7.9003906 17.345703 C 7.9003906 17.732302 8.2130097 18.046875 8.5996094 18.046875 C 8.9862092 18.046875 9.3007812 17.732302 9.3007812 17.345703 C 9.3007812 16.959103 8.9862092 16.646484 8.5996094 16.646484 z " />
</svg>
