<?xml version="1.0" encoding="UTF-8" standalone="no"?>
<svg
   viewBox="0 0 24 24"
   version="1.1"
   id="svg4"
   sodipodi:docname="youtube_hover.svg"
   inkscape:version="1.1.2 (b8e25be833, 2022-02-05)"
   xmlns:inkscape="http://www.inkscape.org/namespaces/inkscape"
   xmlns:sodipodi="http://sodipodi.sourceforge.net/DTD/sodipodi-0.dtd"
   xmlns="http://www.w3.org/2000/svg"
   xmlns:svg="http://www.w3.org/2000/svg">
  <defs
     id="defs8">
    <filter
       style="color-interpolation-filters:sRGB;"
       inkscape:label="Drop Shadow"
       id="filter1695"
       x="-0.06"
       y="-0.085714286"
       width="1.135"
       height="1.1928571">
      <feFlood
         flood-opacity="0.498039"
         flood-color="rgb(0,0,0)"
         result="flood"
         id="feFlood1685" />
      <feComposite
         in="flood"
         in2="SourceGraphic"
         operator="in"
         result="composite1"
         id="feComposite1687" />
      <feGaussianBlur
         in="composite1"
         stdDeviation="0.5"
         result="blur"
         id="feGaussianBlur1689" />
      <feOffset
         dx="0.3"
         dy="0.3"
         result="offset"
         id="feOffset1691" />
      <feComposite
         in="SourceGraphic"
         in2="offset"
         operator="over"
         result="composite2"
         id="feComposite1693" />
    </filter>
  </defs>
  <sodipodi:namedview
     id="namedview6"
     pagecolor="#505050"
     bordercolor="#eeeeee"
     borderopacity="1"
     inkscape:pageshadow="0"
     inkscape:pageopacity="0"
     inkscape:pagecheckerboard="0"
     showgrid="false"
     inkscape:zoom="22.627417"
     inkscape:cx="18.097514"
     inkscape:cy="14.363106"
     inkscape:window-width="1920"
     inkscape:window-height="1017"
     inkscape:window-x="-8"
     inkscape:window-y="-8"
     inkscape:window-maximized="1"
     inkscape:current-layer="svg4" />
  <g
     id="g1683"
     style="filter:url(#filter1695)">
    <rect
       style="fill:#ffffff;stroke:none;stroke-width:13.2283"
       id="rect1029"
       width="6.8209"
       height="7.1068063"
       x="8.6997108"
       y="8.495492" />
    <path
       d="M 10,15 15.19,12 10,9 v 6 M 21.56,7.17 c 0.13,0.47 0.22,1.1 0.28,1.9 0.07,0.8 0.1,1.49 0.1,2.09 L 22,12 c 0,2.19 -0.16,3.8 -0.44,4.83 -0.25,0.9 -0.83,1.48 -1.73,1.73 -0.47,0.13 -1.33,0.22 -2.65,0.28 -1.3,0.07 -2.49,0.1 -3.59,0.1 L 12,19 C 7.81,19 5.2,18.84 4.17,18.56 3.27,18.31 2.69,17.73 2.44,16.83 2.31,16.36 2.22,15.73 2.16,14.93 2.09,14.13 2.06,13.44 2.06,12.84 L 2,12 C 2,9.81 2.16,8.2 2.44,7.17 2.69,6.27 3.27,5.69 4.17,5.44 4.64,5.31 5.5,5.22 6.82,5.16 8.12,5.09 9.31,5.06 10.41,5.06 L 12,5 c 4.19,0 6.8,0.16 7.83,0.44 0.9,0.25 1.48,0.83 1.73,1.73 z"
       id="path2"
       style="fill:#ff0000" />
  </g>
</svg>
