<?xml version="1.0" encoding="UTF-8" standalone="no"?>
<svg
   viewBox="0 0 24 24"
   version="1.1"
   id="svg4"
   sodipodi:docname="heart_outline.svg"
   inkscape:version="1.1.2 (b8e25be833, 2022-02-05)"
   xmlns:inkscape="http://www.inkscape.org/namespaces/inkscape"
   xmlns:sodipodi="http://sodipodi.sourceforge.net/DTD/sodipodi-0.dtd"
   xmlns="http://www.w3.org/2000/svg"
   xmlns:svg="http://www.w3.org/2000/svg">
  <defs
     id="defs8" />
  <sodipodi:namedview
     id="namedview6"
     pagecolor="#505050"
     bordercolor="#eeeeee"
     borderopacity="1"
     inkscape:pageshadow="0"
     inkscape:pageopacity="0"
     inkscape:pagecheckerboard="0"
     showgrid="false"
     inkscape:zoom="34.625"
     inkscape:cx="12"
     inkscape:cy="11.98556"
     inkscape:window-width="1920"
     inkscape:window-height="1017"
     inkscape:window-x="-8"
     inkscape:window-y="-8"
     inkscape:window-maximized="1"
     inkscape:current-layer="svg4" />
  <path
     d="M12.1,18.55L12,18.65L11.89,18.55C7.14,14.24 4,11.39 4,8.5C4,6.5 5.5,5 7.5,5C9.04,5 10.54,6 11.07,7.36H12.93C13.46,6 14.96,5 16.5,5C18.5,5 20,6.5 20,8.5C20,11.39 16.86,14.24 12.1,18.55M16.5,3C14.76,3 13.09,3.81 12,5.08C10.91,3.81 9.24,3 7.5,3C4.42,3 2,5.41 2,8.5C2,12.27 5.4,15.36 10.55,20.03L12,21.35L13.45,20.03C18.6,15.36 22,12.27 22,8.5C22,5.41 19.58,3 16.5,3Z"
     id="path2"
     style="fill:#ffffff" />
</svg>
